<svg xmlns="http://www.w3.org/2000/svg" viewBox="0 0 553.7 416.8" role="img" aria-label="OpenVolley">
  <title>OpenVolley</title>
  <path fill="#e2001a" d="M386.82 131.71A110 110 0 0 1 376.06 181.49A77.33 77.33 0 0 0 278.09 127.77A66.33 66.33 0 0 1 259.89 99.28A110.33 110.33 0 0 1 386.82 131.71ZM285.47 24.34A110 110 0 0 1 384.92 113.53A121.33 121.33 0 0 0 257.39 88.44A66.33 66.33 0 0 1 285.47 24.34Z"/>
  <path fill="#1c1917" d="M223.83 230.39A110 110 0 0 1 186.11 196.19A77.33 77.33 0 0 0 281.61 138.19A66.33 66.33 0 0 1 315.39 136.68A110.33 110.33 0 0 1 223.83 230.39ZM367.5 196.3A110 110 0 0 1 240.53 237.83A121.33 121.33 0 0 0 326.03 139.93A66.33 66.33 0 0 1 367.5 196.3Z"/>
  <path fill="#1c1917" d="M219.87 39.9A110 110 0 0 1 268.35 24.33A77.33 77.33 0 0 0 270.82 136.04A66.33 66.33 0 0 1 255.25 166.04A110.33 110.33 0 0 1 219.87 39.9ZM177.56 181.36A110 110 0 0 1 205.07 50.64A121.33 121.33 0 0 0 247.11 173.63A66.33 66.33 0 0 1 177.56 181.36Z"/>
  <path fill="#1c1917" d="M61.35 369.93Q51.59 369.93 43.82 365.36Q36.06 360.79 31.57 352.37Q27.08 343.95 27.08 332.43Q27.08 320.8 31.57 312.38Q36.06 303.96 43.82 299.39Q51.59 294.83 61.35 294.83Q71.17 294.83 78.91 299.39Q86.65 303.96 91.16 312.38Q95.68 320.8 95.68 332.43Q95.68 343.95 91.16 352.37Q86.65 360.79 78.91 365.36Q71.17 369.93 61.35 369.93ZM61.35 356.64Q66.97 356.64 71.31 353.81Q75.66 350.98 78.1 345.56Q80.54 340.14 80.54 332.43Q80.54 324.66 78.1 319.22Q75.66 313.77 71.31 310.94Q66.97 308.11 61.35 308.11Q55.79 308.11 51.44 310.94Q47.1 313.77 44.65 319.22Q42.21 324.66 42.21 332.43Q42.21 340.14 44.65 345.56Q47.1 350.98 51.44 353.81Q55.79 356.64 61.35 356.64ZM101.83 389.16V317.19H116.04V324.17H116.19Q117.8 321.49 120.07 319.71Q122.34 317.92 125.25 317.02Q128.15 316.12 131.47 316.12Q138.06 316.12 143.07 319.51Q148.07 322.9 150.88 328.93Q153.69 334.96 153.69 342.92Q153.69 350.98 150.91 357.04Q148.12 363.09 143.14 366.46Q138.16 369.83 131.37 369.83Q128.01 369.83 125.15 368.85Q122.29 367.88 120.07 365.92Q117.85 363.97 116.38 361.04H116.24V389.16ZM127.66 358.11Q131.18 358.11 133.74 356.33Q136.31 354.54 137.75 351.15Q139.19 347.76 139.19 342.92Q139.19 338.09 137.75 334.7Q136.31 331.3 133.74 329.52Q131.18 327.74 127.66 327.74Q124.05 327.74 121.29 329.62Q118.53 331.5 117.04 334.89Q115.55 338.29 115.55 342.92Q115.55 347.51 117.04 350.93Q118.53 354.35 121.29 356.23Q124.05 358.11 127.66 358.11ZM183.13 369.93Q175.32 369.93 169.54 366.48Q163.75 363.04 160.55 356.94Q157.35 350.83 157.35 343.02Q157.35 335.11 160.6 329.03Q163.85 322.95 169.56 319.49Q175.27 316.02 182.65 316.02Q188.36 316.02 193 317.95Q197.64 319.88 201.01 323.47Q204.37 327.05 206.21 331.94Q208.04 336.82 208.04 342.73V346.59H162.48V337.41H201.1L194.61 339.6Q194.61 335.7 193.19 332.87Q191.78 330.03 189.16 328.5Q186.55 326.96 182.94 326.96Q179.37 326.96 176.79 328.5Q174.2 330.03 172.78 332.87Q171.37 335.7 171.37 339.6V345.85Q171.37 349.86 172.81 352.86Q174.25 355.86 176.98 357.5Q179.72 359.13 183.57 359.13Q186.41 359.13 188.58 358.33Q190.75 357.52 192.24 356.03Q193.73 354.54 194.37 352.54H207.5Q206.57 357.67 203.15 361.58Q199.74 365.48 194.56 367.7Q189.38 369.93 183.13 369.93ZM228.16 340.09V368.75H213.75V317.19H227.91V330.62H225.47Q227.91 323.78 232.45 319.95Q236.99 316.12 244.02 316.12Q249.54 316.12 253.6 318.49Q257.65 320.85 259.87 325.39Q262.09 329.94 262.09 336.48V368.75H247.74V339.12Q247.74 333.89 245.27 331.21Q242.8 328.52 238.26 328.52Q235.28 328.52 232.99 329.74Q230.69 330.96 229.43 333.52Q228.16 336.09 228.16 340.09ZM286.12 368.75 260.58 296H276.94L288.7 331.4Q290.8 337.99 293.08 345.73Q295.35 353.47 298.03 362.6H293.69Q296.27 353.47 298.49 345.73Q300.72 337.99 302.72 331.4L314.1 296H330.26L305.26 368.75ZM349.79 369.93Q342.03 369.93 336.12 366.56Q330.21 363.19 326.91 357.13Q323.62 351.08 323.62 343.02Q323.62 334.92 326.91 328.86Q330.21 322.81 336.12 319.41Q342.03 316.02 349.79 316.02Q357.65 316.02 363.54 319.41Q369.42 322.81 372.72 328.86Q376.01 334.92 376.01 343.02Q376.01 351.08 372.72 357.13Q369.42 363.19 363.54 366.56Q357.65 369.93 349.79 369.93ZM349.79 358.26Q353.31 358.26 355.94 356.42Q358.58 354.59 360.04 351.18Q361.51 347.76 361.51 343.02Q361.51 338.19 360.04 334.77Q358.58 331.35 355.94 329.52Q353.31 327.69 349.79 327.69Q346.32 327.69 343.69 329.52Q341.05 331.35 339.59 334.77Q338.12 338.19 338.12 343.02Q338.12 347.81 339.59 351.2Q341.05 354.59 343.69 356.42Q346.32 358.26 349.79 358.26ZM396.33 296V368.75H381.92V296ZM418.89 296V368.75H404.48V296ZM450.58 369.93Q442.77 369.93 436.98 366.48Q431.19 363.04 427.99 356.94Q424.8 350.83 424.8 343.02Q424.8 335.11 428.04 329.03Q431.29 322.95 437 319.49Q442.72 316.02 450.09 316.02Q455.8 316.02 460.44 317.95Q465.08 319.88 468.45 323.47Q471.82 327.05 473.65 331.94Q475.48 336.82 475.48 342.73V346.59H429.92V337.41H468.55L462.05 339.6Q462.05 335.7 460.64 332.87Q459.22 330.03 456.61 328.5Q454 326.96 450.38 326.96Q446.82 326.96 444.23 328.5Q441.64 330.03 440.23 332.87Q438.81 335.7 438.81 339.6V345.85Q438.81 349.86 440.25 352.86Q441.69 355.86 444.43 357.5Q447.16 359.13 451.02 359.13Q453.85 359.13 456.02 358.33Q458.19 357.52 459.68 356.03Q461.17 354.54 461.81 352.54H474.94Q474.02 357.67 470.6 361.58Q467.18 365.48 462 367.7Q456.83 369.93 450.58 369.93ZM480.66 389.16V377.79H487.2Q488.96 377.79 490.03 377.25Q491.11 376.71 491.86 375.52Q492.62 374.32 493.3 372.37L494.72 368.56L474.9 317.19H489.98L498.63 342.68Q500.09 347.17 501.46 351.74Q502.83 356.3 504.1 360.89H500.09Q501.31 356.3 502.68 351.74Q504.05 347.17 505.51 342.68L514.2 317.19H529.14L506.44 376.71Q504.78 381.01 502.53 383.77Q500.29 386.53 497.24 387.85Q494.18 389.16 490.18 389.16Q487.84 389.16 485.42 389.16Q483 389.16 480.66 389.16Z"/>
</svg>
